:SAMPLES-PER-SECOND 30
:FRAME-RANGE 1-3549
:FULLY-SPECIFIED
:DEGREES
2662
root  -0.583512 39.3768 21.3344 -176.187 63.4617 -179.881
RightUpLeg  -7.72486 -4.94133 1.38712
RightLeg  18.0864 -4.49092 -1.49191
RightFoot  -14.7112 -0.0104738 3.032
RightToes  1.218e-010 1.26228e-014 -6.01869e-014
Spine  -1.03446 2.17594 6.30539
Spine1  7.3816 2.81443 -2.87503
HEad  2.70288 12.577 -6.0489
LeftShoulder1  2.60676 -6.38549 -20.7521
LeftArm  -7.40359 -25.712 -58.2086
LeftForeArm  -44.4574 -18.1651 -6.70529
LeftHand  0.436889 0.491092 -10.4999
RightShoulder  3.00108 6.76981 23.7277
RightArm  -18.5601 28.4451 69.1386
RightForeArm  -10.9807 16.3164 4.41453
RightHand  0.377944 2.77054 5.16213
LeftUpLeg  -24.8596 -1.41835 1.62057
LeftLeg  24.1008 10.4198 5.38336
LeftFoot  -2.6518 0.274078 -3.39779
LeftToes  -1.43952e-010 7.51141e-011 -1.22592e-011
2663
root  -0.526294 39.428 21.4231 -176.273 63.2864 179.7
RightUpLeg  -7.74421 -4.79724 1.39981
RightLeg  17.5282 -4.84545 -1.54376
RightFoot  -14.4468 -0.0176769 2.95862
RightToes  1.218e-010 1.26228e-014 -6.01869e-014
Spine  -1.17872 2.19178 5.97318
Spine1  7.25947 2.86238 -3.07123
HEad  2.81926 12.2715 -6.02187
LeftShoulder1  2.61631 -6.49708 -20.5287
LeftArm  -8.75159 -26.7667 -58.5058
LeftForeArm  -45.8087 -18.0311 -6.54634
LeftHand  0.433013 0.60295 -10.67
RightShoulder  3.02652 6.91243 23.5525
RightArm  -18.4751 29.4563 69.7523
RightForeArm  -13.0309 16.8364 4.40908
RightHand  0.370287 2.5497 5.21273
LeftUpLeg  -24.9276 -2.1252 1.04558
LeftLeg  22.2178 10.5891 5.04328
LeftFoot  -2.29659 0.240216 -2.86275
LeftToes  -1.43952e-010 7.51141e-011 -1.22592e-011
2664
root  -0.440048 39.4765 21.4727 -176.266 62.9381 179.383
RightUpLeg  -7.60678 -4.74791 1.39262
RightLeg  16.8378 -5.23235 -1.52938
RightFoot  -14.2305 -0.0224561 2.93272
RightToes  1.218e-010 1.26228e-014 -6.01869e-014
Spine  -1.34236 2.15015 5.75416
Spine1  7.28659 2.88071 -3.37164
HEad  2.6464 11.7694 -5.988
LeftShoulder1  2.62075 -6.5957 -20.2919
LeftArm  -9.82 -28.0384 -58.7176
LeftForeArm  -46.3758 -17.597 -6.40841
LeftHand  0.412346 0.803327 -10.6475
RightShoulder  3.04987 7.0809 23.2831
RightArm  -18.634 30.4302 70.3178
RightForeArm  -13.923 17.2688 4.37184
RightHand  0.344802 2.19268 5.10038
LeftUpLeg  -25.0809 -2.43686 0.583365
LeftLeg  20.0518 10.5306 4.5508
LeftFoot  -1.94283 0.254193 -2.95049
LeftToes  -1.43952e-010 7.51141e-011 -1.22592e-011
2665
root  -0.33165 39.519 21.4918 -176.127 62.5613 179.256
RightUpLeg  -7.35818 -4.77171 1.42433
RightLeg  16.142 -5.58193 -1.47069
RightFoot  -14.0864 -0.0258998 2.90236
RightToes  1.218e-010 1.26228e-014 -6.01869e-014
Spine  -1.28771 2.06771 5.52327
Spine1  7.13332 2.86426 -3.67719
HEad  2.49676 11.3517 -5.83358
LeftShoulder1  2.62634 -6.73012 -19.9713
LeftArm  -10.7682 -29.2178 -58.9383
LeftForeArm  -46.9514 -16.988 -6.25377
LeftHand  0.394777 1.02341 -10.7576
RightShoulder  3.09501 7.28276 23.1432
RightArm  -18.6032 31.3282 70.7526
RightForeArm  -15.3103 17.5013 4.36311
RightHand  0.324871 1.84287 5.06031
LeftUpLeg  -25.3049 -2.64552 0.37011
LeftLeg  17.6757 10.9133 4.18984
LeftFoot  -0.754842 0.25831 -2.73953
LeftToes  -1.43952e-010 7.51141e-011 -1.22592e-011
2666
root  -0.197489 39.5353 21.4668 -175.701 62.2958 179.343
RightUpLeg  -7.28543 -4.77186 1.54028
RightLeg  15.7099 -5.88908 -1.44202
RightFoot  -14.0925 -0.0295119 2.74697
RightToes  1.218e-010 1.26228e-014 -6.01869e-014
Spine  -1.15208 2.06841 5.30873
Spine1  6.78686 2.89268 -3.84495
HEad  2.28945 10.9466 -5.71985
LeftShoulder1  2.65593 -6.93354 -19.723
LeftArm  -11.5267 -30.2428 -59.1851
LeftForeArm  -47.9295 -16.3544 -6.08572
LeftHand  0.378435 1.16513 -10.6958
RightShoulder  3.12532 7.45252 22.954
RightArm  -18.6228 32.2082 71.1066
RightForeArm  -16.5215 17.5934 4.322
RightHand  0.294378 1.46222 4.86279
LeftUpLeg  -25.6945 -2.75182 0.363011
LeftLeg  15.3929 11.7676 4.09449
LeftFoot  0.0803084 0.253311 -2.53847
LeftToes  -1.43952e-010 7.51141e-011 -1.22592e-011
2667
root  -0.0153676 39.5411 21.3987 -174.948 62.2699 179.892
RightUpLeg  -6.94468 -4.62298 1.80957
RightLeg  15.0986 -6.06716 -1.30045
RightFoot  -14.0614 -0.0300856 2.74538
RightToes  1.218e-010 1.26228e-014 -6.01869e-014
Spine  -1.80342 2.23993 5.13473
Spine1  7.69634 3.05165 -3.71876
HEad  1.71179 10.477 -5.58748
LeftShoulder1  2.69293 -7.16064 -19.4979
LeftArm  -12.2875 -31.6569 -59.4702
LeftForeArm  -48.2316 -15.5027 -5.87524
LeftHand  0.352028 1.45826 -10.7736
RightShoulder  3.12482 7.59977 22.5332
RightArm  -18.6675 33.6482 71.5675
RightForeArm  -17.2503 17.1929 4.07959
RightHand  0.262789 1.20446 4.52308
LeftUpLeg  -25.995 -2.46835 0.624946
LeftLeg  13.4799 12.1968 3.99663
LeftFoot  0.271016 0.240633 -2.38314
LeftToes  -1.43952e-010 7.51141e-011 -1.22592e-011
2668
root  0.227967 39.5265 21.2746 -174.057 62.2859 -179.261
RightUpLeg  -6.34824 -4.56296 2.13081
RightLeg  14.5211 -6.12998 -1.05916
RightFoot  -14.2461 -0.0287349 2.6731
RightToes  1.218e-010 1.26228e-014 -6.01869e-014
Spine  -1.9779 2.33396 5.17645
Spine1  7.85481 3.17895 -3.84211
HEad  1.39685 10.252 -5.17078
LeftShoulder1  2.72417 -7.36414 -19.2846
LeftArm  -12.6214 -32.5247 -59.5717
LeftForeArm  -49.2701 -14.8679 -5.72262
LeftHand  0.339969 1.58774 -10.7999
RightShoulder  3.15527 7.74498 22.4267
RightArm  -18.6822 34.7128 71.9995
RightForeArm  -17.9566 16.5598 3.74997
RightHand  0.262515 0.955464 4.72268
LeftUpLeg  -25.9067 -2.00462 1.02876
LeftLeg  11.6874 11.6312 3.69363
LeftFoot  0.582648 0.301877 -2.92491
LeftToes  -1.43952e-010 7.51141e-011 -1.22592e-011
2669
root  0.542325 39.4926 21.085 -173.106 62.1879 -178.31
RightUpLeg  -5.53402 -4.31648 2.47449
RightLeg  13.9361 -6.43253 -0.884099
RightFoot  -14.5796 -0.0205082 2.76854
RightToes  1.218e-010 1.26228e-014 -6.01869e-014
Spine  -2.44164 2.36208 5.19138
Spine1  8.18634 3.21938 -3.89775
HEad  1.22128 10.0579 -4.5242
LeftShoulder1  2.726 -7.43153 -19.1303
LeftArm  -13.0352 -33.2248 -59.7378
LeftForeArm  -50.2068 -14.2948 -5.53599
LeftHand  0.312011 1.90233 -10.9174
RightShoulder  3.19614 7.92754 22.3212
RightArm  -18.7072 35.6498 72.4282
RightForeArm  -18.262 15.7487 3.3116
RightHand  0.26019 0.691471 4.91349
LeftUpLeg  -25.4693 -1.63289 1.39347
LeftLeg  10.2172 10.7175 3.41786
LeftFoot  0.250143 0.316306 -3.13174
LeftToes  -1.43952e-010 7.51141e-011 -1.22592e-011
2670
root  0.924785 39.4638 20.8284 -172.547 62.095 -177.64
RightUpLeg  -4.42183 -4.14039 2.67953
RightLeg  13.3412 -6.6811 -0.826285
RightFoot  -14.9756 -0.00738719 2.96479
RightToes  1.218e-010 1.26228e-014 -6.01869e-014
Spine  -2.94108 2.42107 4.84374
Spine1  8.38681 3.27407 -3.77806
HEad  1.50344 9.82168 -3.98912
LeftShoulder1  2.79023 -7.64552 -19.2275
LeftArm  -13.2351 -33.5186 -59.7947
LeftForeArm  -50.7894 -13.6874 -5.41279
LeftHand  0.292621 2.11807 -11.0039
RightShoulder  3.213 8.04006 22.1797
RightArm  -18.653 36.2315 72.7724
RightForeArm  -18.7284 14.6888 2.78208
RightHand  0.263242 0.49783 5.15855
LeftUpLeg  -24.648 -1.19076 1.47864
LeftLeg  9.4038 10.3362 3.33925
LeftFoot  -0.262467 0.2925 -3.00024
LeftToes  -1.43952e-010 7.51141e-011 -1.22592e-011
2671
root  1.3407 39.4293 20.5263 -172.626 62.0761 -177.616
RightUpLeg  -3.48379 -3.82677 2.73816
RightLeg  13.3627 -7.05216 -1.28364
RightFoot  -15.4951 0.00940991 3.15381
RightToes  1.218e-010 1.26228e-014 -6.01869e-014
Spine  -3.40737 2.31616 4.31772
Spine1  8.63364 3.32483 -4.21453
HEad  1.78807 9.70043 -3.0381
LeftShoulder1  2.75476 -7.57267 -19.0601
LeftArm  -13.2698 -33.6376 -59.9928
LeftForeArm  -51.3008 -13.401 -5.34722
LeftHand  0.289079 2.1099 -10.8471
RightShoulder  3.2652 8.19686 22.2529
RightArm  -18.403 36.6746 73.2994
RightForeArm  -19.8907 13.748 2.32781
RightHand  0.220645 0.158061 4.62351
LeftUpLeg  -23.8366 -1.0729 1.28827
LeftLeg  9.15191 9.8214 3.36819
LeftFoot  1.98621 0.368964 -3.26142
LeftToes  -1.43952e-010 7.51141e-011 -1.22592e-011
2672
root  1.76748 39.3335 20.2002 -173.552 61.6285 -178.552
RightUpLeg  -3.37304 -2.61117 2.65375
RightLeg  15.236 -8.71926 -2.68379
RightFoot  -16.5184 0.0640431 3.89145
RightToes  1.218e-010 1.26228e-014 -6.01869e-014
Spine  -3.58067 2.13624 3.11182
Spine1  8.59086 3.21128 -4.29836
HEad  1.81073 9.07885 -2.01025
LeftShoulder1  2.79598 -7.74842 -19.0279
LeftArm  -13.2546 -33.8209 -60.0059
LeftForeArm  -51.1512 -12.9732 -5.32619
LeftHand  0.246618 2.59825 -11.1269
RightShoulder  3.26222 8.15902 22.3248
RightArm  -18.5816 36.7613 73.7356
RightForeArm  -20.5461 13.1227 1.87421
RightHand  0.216877 -0.134247 4.83667
LeftUpLeg  -23.6362 -1.01073 0.742746
LeftLeg  10.1052 9.11762 3.07598
LeftFoot  3.45785 0.408134 -3.30439
LeftToes  -1.43952e-010 7.51141e-011 -1.22592e-011
2673
root  2.14427 39.1712 19.8808 -175.267 60.9385 179.702
RightUpLeg  -3.98632 -1.20962 2.01815
RightLeg  18.8216 -10.7054 -4.24047
RightFoot  -18.0342 0.171039 5.01349
RightToes  1.218e-010 1.26228e-014 -6.01869e-014
Spine  -3.37133 1.8767 1.6543
Spine1  8.60486 3.14421 -4.8696
HEad  1.39231 8.01102 -1.05125
LeftShoulder1  2.82625 -7.9405 -18.8519
LeftArm  -13.0473 -34.386 -60.2744
LeftForeArm  -51.1094 -12.3298 -5.29678
LeftHand  0.267467 2.24381 -10.5414
RightShoulder  3.25955 8.26132 22.0325
RightArm  -19.0847 36.5892 74.0721
RightForeArm  -20.7187 12.92 1.51281
RightHand  0.22515 -0.097819 4.98077
LeftUpLeg  -23.8787 -1.37127 -0.198639
LeftLeg  12.2752 8.72871 3.08169
LeftFoot  2.90763 0.47547 -3.94511
LeftToes  -1.43952e-010 7.51141e-011 -1.22592e-011
2674
root  2.46728 39.0394 19.5503 -176.588 60.7266 178.496
RightUpLeg  -5.38917 0.319985 1.3598
RightLeg  23.9876 -11.549 -5.77827
RightFoot  -18.8018 0.332785 7.05389
RightToes  1.218e-010 1.26228e-014 -6.01869e-014
Spine  -2.98889 1.87112 0.863856
Spine1  8.6495 3.33725 -5.60922
HEad  0.779549 6.86207 -0.525001
LeftShoulder1  2.88999 -8.14719 -18.9628
LeftArm  -12.7895 -35.1409 -60.3526
LeftForeArm  -51.4234 -11.7144 -5.2854
LeftHand  0.222504 2.75974 -10.7891
RightShoulder  3.24973 8.30315 21.8341
RightArm  -18.9076 36.8069 74.168
RightForeArm  -21.0577 12.5275 1.35012
RightHand  0.212098 -0.154163 4.75131
LeftUpLeg  -24.1345 -1.7526 -1.00696
LeftLeg  14.6386 8.52132 3.23077
LeftFoot  1.97067 0.328637 -2.91892
LeftToes  -1.43952e-010 7.51141e-011 -1.22592e-011
2675
root  2.76703 38.9524 19.2064 -177.064 60.7791 178.382
RightUpLeg  -7.41233 1.15754 0.956724
RightLeg  30.2498 -10.5839 -6.82935
RightFoot  -18.3541 0.452561 9.40267
RightToes  1.218e-010 1.26228e-014 -6.01869e-014
Spine  -2.64883 1.94521 0.616225
Spine1  8.85448 3.47837 -5.95935
HEad  0.476456 6.12607 -0.630475
LeftShoulder1  2.96149 -8.3273 -19.204
LeftArm  -13.1043 -35.5698 -60.4212
LeftForeArm  -51.3157 -11.2959 -5.14187
LeftHand  0.190545 3.12897 -11.052
RightShoulder  3.26965 8.41469 21.7317
RightArm  -18.5989 37.1907 74.2514
RightForeArm  -21.3468 11.9475 1.14512
RightHand  0.215624 -0.164879 4.84125
LeftUpLeg  -24.0209 -1.98821 -1.33341
LeftLeg  16.5257 8.4897 3.44863
LeftFoot  1.27027 0.145687 -1.3883
LeftToes  -1.43952e-010 7.51141e-011 -1.22592e-011
2676
root  3.0408 38.8878 18.9094 -176.972 60.8585 178.661
RightUpLeg  -10.3512 1.17179 0.526663
RightLeg  37.1248 -8.37578 -7.00313
RightFoot  -16.6422 0.44224 11.9612
RightToes  1.218e-010 1.26228e-014 -6.01869e-014
Spine  -2.30421 1.96975 0.0980782
Spine1  8.83154 3.42639 -5.85644
HEad  0.603371 5.67398 -0.946312
LeftShoulder1  2.98138 -8.46126 -19.0735
LeftArm  -13.4298 -35.6132 -60.8195
LeftForeArm  -51.2977 -11.0037 -4.96674
LeftHand  0.26159 2.261 -10.3833
RightShoulder  3.29271 8.51699 21.6827
RightArm  -18.3699 37.6162 74.5051
RightForeArm  -21.7114 11.2645 0.834909
RightHand  0.216388 -0.202749 4.81737
LeftUpLeg  -24.129 -1.67085 -1.47235
LeftLeg  18.3068 8.12958 3.54354
LeftFoot  0.201243 0.0683329 -0.688326
LeftToes  -1.43952e-010 7.51141e-011 -1.22592e-011
